<svg width="203" height="42" viewBox="0 0 203 42" fill="none" xmlns="http://www.w3.org/2000/svg">
<path d="M12.1295 3.47717L25.1211 23.4237L34.4043 8.56208C35.7595 6.51829 35.2022 3.72284 33.1665 2.35518C32.4368 1.86605 31.5781 1.60425 30.6996 1.60352H13.1466C12.4815 1.60352 11.9344 2.15058 11.9344 2.81571C11.9337 3.05038 12.0019 3.27991 12.1295 3.47717ZM25.0771 18.916L15.3796 4.02937H30.6996C31.0325 4.02864 31.3596 4.11077 31.6529 4.26844L31.8238 4.3711C32.7111 4.97683 32.9868 6.17729 32.4537 7.11009L32.3518 7.27949L25.0771 18.916Z" fill="#00B37E"/>
<path fill-rule="evenodd" clip-rule="evenodd" d="M30.7194 40.3967C33.1562 40.3813 35.1531 38.3712 35.1531 35.9344C35.1531 35.0566 34.8935 34.1978 34.408 33.466L14.1036 2.35811C13.7978 1.88805 13.2742 1.60425 12.7139 1.60425C12.1654 1.60425 11.6513 1.87631 11.3426 2.32951L0.743046 17.8622C-0.247682 19.3582 -0.247682 21.3118 0.743046 22.8077L11.0874 38.4093C11.9058 39.6465 13.2932 40.3923 14.776 40.3937L30.7194 40.3967Z" fill="url(#paint0_linear_42078_437)"/>
<path d="M52.768 11.3104H59.5516C60.9425 11.3104 62.1376 11.5186 63.137 11.9351C64.1448 12.3515 64.9193 12.9678 65.4607 13.784C66.0021 14.6002 66.2727 15.6038 66.2727 16.7948C66.2727 17.7692 66.1062 18.6062 65.773 19.3058C65.4482 19.9971 64.986 20.576 64.3863 21.0424C63.795 21.5004 63.0995 21.8669 62.3 22.1417L61.1132 22.7664H55.2166L55.1916 19.843H59.5766C60.2345 19.843 60.78 19.7264 61.2131 19.4932C61.6462 19.26 61.971 18.9352 62.1876 18.5188C62.4124 18.1024 62.5249 17.6193 62.5249 17.0696C62.5249 16.4866 62.4166 15.9828 62.2001 15.558C61.9835 15.1332 61.6545 14.8084 61.2131 14.5836C60.7717 14.3587 60.2179 14.2462 59.5516 14.2462H56.5158V29.5H52.768V11.3104ZM62.9371 29.5L58.7895 21.3922L62.7497 21.3672L66.9473 29.3251V29.5H62.9371ZM75.1551 29.7499C74.1057 29.7499 73.1646 29.5833 72.3318 29.2501C71.4989 28.9087 70.791 28.4381 70.208 27.8385C69.6333 27.2388 69.1919 26.5434 68.8837 25.7521C68.5756 24.9526 68.4215 24.1031 68.4215 23.2036V22.7039C68.4215 21.6795 68.5672 20.7425 68.8587 19.893C69.1502 19.0435 69.5667 18.3064 70.108 17.6818C70.6577 17.0571 71.324 16.5782 72.1069 16.2451C72.8898 15.9036 73.7726 15.7329 74.7554 15.7329C75.7131 15.7329 76.5627 15.8911 77.3039 16.2076C78.0451 16.5241 78.6656 16.9739 79.1653 17.5569C79.6734 18.1398 80.0565 18.8394 80.3147 19.6556C80.5729 20.4635 80.702 21.363 80.702 22.3541V23.8532H69.9581V21.4546H77.1665V21.1798C77.1665 20.6801 77.0749 20.2345 76.8916 19.843C76.7167 19.4433 76.4502 19.1268 76.0921 18.8936C75.734 18.6604 75.2759 18.5438 74.7179 18.5438C74.2432 18.5438 73.8351 18.6479 73.4936 18.8561C73.1521 19.0643 72.8731 19.3558 72.6566 19.7306C72.4484 20.1054 72.2901 20.5468 72.1818 21.0548C72.0819 21.5546 72.0319 22.1042 72.0319 22.7039V23.2036C72.0319 23.745 72.1069 24.2447 72.2568 24.7028C72.415 25.1608 72.6357 25.5564 72.9189 25.8896C73.2104 26.2227 73.5602 26.4809 73.9683 26.6641C74.3847 26.8474 74.8553 26.939 75.38 26.939C76.0296 26.939 76.6335 26.814 77.1915 26.5642C77.7578 26.306 78.245 25.9187 78.6531 25.4024L80.4021 27.3013C80.119 27.7094 79.7317 28.1008 79.2403 28.4756C78.7572 28.8504 78.1742 29.1585 77.4913 29.4001C76.8084 29.6333 76.0296 29.7499 75.1551 29.7499ZM90.0466 26.4517V20.4302C90.0466 19.9971 89.9758 19.6265 89.8342 19.3183C89.6926 19.0019 89.4719 18.7562 89.1721 18.5813C88.8806 18.4064 88.5016 18.3189 88.0352 18.3189C87.6355 18.3189 87.2898 18.3897 86.9983 18.5313C86.7068 18.6645 86.482 18.8603 86.3237 19.1185C86.1655 19.3683 86.0864 19.664 86.0864 20.0054H82.4884C82.4884 19.4308 82.6217 18.8853 82.8882 18.3689C83.1547 17.8525 83.542 17.3986 84.05 17.0072C84.5581 16.6074 85.1619 16.2951 85.8615 16.0702C86.5694 15.8453 87.3606 15.7329 88.2351 15.7329C89.2845 15.7329 90.2173 15.9078 91.0335 16.2576C91.8497 16.6074 92.491 17.1321 92.9574 17.8317C93.4321 18.5313 93.6695 19.4058 93.6695 20.4552V26.2394C93.6695 26.9806 93.7153 27.5886 93.8069 28.0633C93.8985 28.5297 94.0318 28.9378 94.2067 29.2876V29.5H90.5713C90.3964 29.1335 90.2631 28.6755 90.1715 28.1258C90.0882 27.5678 90.0466 27.0098 90.0466 26.4517ZM90.5213 21.2672L90.5463 23.3036H88.535C88.0602 23.3036 87.648 23.3577 87.2982 23.466C86.9484 23.5742 86.661 23.7283 86.4362 23.9282C86.2113 24.1198 86.0447 24.3446 85.9364 24.6028C85.8365 24.861 85.7865 25.1442 85.7865 25.4523C85.7865 25.7605 85.8573 26.0395 85.9989 26.2893C86.1405 26.5309 86.3445 26.7224 86.6111 26.864C86.8776 26.9973 87.1899 27.0639 87.548 27.0639C88.0894 27.0639 88.5599 26.9556 88.9597 26.7391C89.3595 26.5225 89.6676 26.256 89.8842 25.9395C90.1091 25.6231 90.2257 25.3232 90.234 25.0401L91.1834 26.5642C91.0502 26.9057 90.867 27.2596 90.6338 27.6261C90.4089 27.9925 90.1215 28.3382 89.7717 28.663C89.4219 28.9795 89.0014 29.2418 88.51 29.45C88.0186 29.6499 87.4356 29.7499 86.761 29.7499C85.9031 29.7499 85.1244 29.5791 84.4248 29.2377C83.7335 28.8879 83.1839 28.409 82.7758 27.801C82.376 27.1847 82.1761 26.4851 82.1761 25.7022C82.1761 24.9943 82.3094 24.3654 82.5759 23.8158C82.8424 23.2661 83.2338 22.8038 83.7502 22.4291C84.2749 22.0459 84.9287 21.7586 85.7116 21.5671C86.4945 21.3672 87.4023 21.2672 88.435 21.2672H90.5213ZM102.027 26.939C102.469 26.939 102.86 26.8557 103.202 26.6891C103.543 26.5142 103.81 26.2727 104.001 25.9645C104.201 25.648 104.305 25.2774 104.313 24.8527H107.699C107.691 25.8021 107.437 26.6475 106.937 27.3887C106.437 28.1216 105.767 28.7005 104.926 29.1252C104.084 29.5416 103.143 29.7499 102.102 29.7499C101.053 29.7499 100.137 29.575 99.3538 29.2252C98.5792 28.8754 97.9337 28.3923 97.4174 27.776C96.901 27.1513 96.5137 26.4268 96.2555 25.6022C95.9973 24.7694 95.8683 23.8782 95.8683 22.9288V22.5665C95.8683 21.6087 95.9973 20.7175 96.2555 19.893C96.5137 19.0602 96.901 18.3356 97.4174 17.7193C97.9337 17.0946 98.5792 16.6074 99.3538 16.2576C100.128 15.9078 101.036 15.7329 102.077 15.7329C103.185 15.7329 104.155 15.9453 104.988 16.37C105.829 16.7948 106.487 17.4028 106.962 18.194C107.445 18.9769 107.691 19.9055 107.699 20.9799H104.313C104.305 20.5301 104.209 20.122 104.026 19.7556C103.851 19.3891 103.593 19.0976 103.252 18.8811C102.918 18.6562 102.506 18.5438 102.015 18.5438C101.49 18.5438 101.061 18.6562 100.728 18.8811C100.395 19.0976 100.137 19.3975 99.9534 19.7806C99.7702 20.1554 99.6411 20.5843 99.5661 21.0673C99.4995 21.5421 99.4662 22.0418 99.4662 22.5665V22.9288C99.4662 23.4535 99.4995 23.9573 99.5661 24.4404C99.6328 24.9235 99.7577 25.3524 99.9409 25.7272C100.132 26.1019 100.395 26.3976 100.728 26.6142C101.061 26.8307 101.494 26.939 102.027 26.939ZM116.406 15.9828V18.5313H108.536V15.9828H116.406ZM110.485 12.6472H114.083V25.4273C114.083 25.8188 114.133 26.1186 114.233 26.3268C114.341 26.535 114.499 26.6808 114.707 26.7641C114.916 26.839 115.178 26.8765 115.494 26.8765C115.719 26.8765 115.919 26.8682 116.094 26.8515C116.277 26.8265 116.431 26.8015 116.556 26.7766L116.569 29.425C116.261 29.525 115.928 29.6041 115.569 29.6624C115.211 29.7207 114.816 29.7499 114.383 29.7499C113.591 29.7499 112.9 29.6208 112.309 29.3626C111.726 29.0961 111.276 28.6713 110.96 28.0883C110.643 27.5053 110.485 26.7391 110.485 25.7896V12.6472ZM126.763 11.3104H129.936L134.609 24.6653L139.281 11.3104H142.454L135.883 29.5H133.334L126.763 11.3104ZM125.052 11.3104H128.212L128.787 24.328V29.5H125.052V11.3104ZM141.005 11.3104H144.178V29.5H140.43V24.328L141.005 11.3104ZM146.664 22.8788V22.6164C146.664 21.6253 146.806 20.7134 147.089 19.8805C147.372 19.0393 147.784 18.3106 148.326 17.6943C148.867 17.078 149.533 16.5991 150.325 16.2576C151.116 15.9078 152.024 15.7329 153.048 15.7329C154.072 15.7329 154.984 15.9078 155.784 16.2576C156.583 16.5991 157.254 17.078 157.795 17.6943C158.345 18.3106 158.761 19.0393 159.045 19.8805C159.328 20.7134 159.469 21.6253 159.469 22.6164V22.8788C159.469 23.8616 159.328 24.7735 159.045 25.6147C158.761 26.4476 158.345 27.1763 157.795 27.801C157.254 28.4173 156.588 28.8962 155.796 29.2377C155.005 29.5791 154.097 29.7499 153.073 29.7499C152.049 29.7499 151.137 29.5791 150.337 29.2377C149.546 28.8962 148.875 28.4173 148.326 27.801C147.784 27.1763 147.372 26.4476 147.089 25.6147C146.806 24.7735 146.664 23.8616 146.664 22.8788ZM150.262 22.6164V22.8788C150.262 23.4451 150.312 23.974 150.412 24.4654C150.512 24.9568 150.67 25.3899 150.887 25.7646C151.112 26.1311 151.403 26.4184 151.761 26.6266C152.119 26.8349 152.557 26.939 153.073 26.939C153.573 26.939 154.002 26.8349 154.36 26.6266C154.718 26.4184 155.005 26.1311 155.222 25.7646C155.438 25.3899 155.596 24.9568 155.696 24.4654C155.805 23.974 155.859 23.4451 155.859 22.8788V22.6164C155.859 22.0668 155.805 21.5504 155.696 21.0673C155.596 20.576 155.434 20.1429 155.209 19.7681C154.993 19.385 154.705 19.0851 154.347 18.8686C153.989 18.6521 153.556 18.5438 153.048 18.5438C152.54 18.5438 152.107 18.6521 151.749 18.8686C151.399 19.0851 151.112 19.385 150.887 19.7681C150.67 20.1429 150.512 20.576 150.412 21.0673C150.312 21.5504 150.262 22.0668 150.262 22.6164ZM165.203 18.8686V29.5H161.606V15.9828H164.979L165.203 18.8686ZM164.679 22.2666H163.704C163.704 21.2672 163.833 20.3677 164.092 19.5682C164.35 18.7603 164.712 18.0732 165.179 17.5069C165.645 16.9322 166.199 16.495 166.84 16.1951C167.49 15.887 168.214 15.7329 169.014 15.7329C169.647 15.7329 170.226 15.8245 170.75 16.0077C171.275 16.191 171.725 16.4825 172.1 16.8822C172.483 17.282 172.774 17.8109 172.974 18.4688C173.182 19.1268 173.286 19.9305 173.286 20.8799V29.5H169.663V20.8675C169.663 20.2678 169.58 19.8014 169.414 19.4683C169.247 19.1351 169.001 18.9019 168.676 18.7687C168.36 18.6271 167.969 18.5563 167.502 18.5563C167.019 18.5563 166.599 18.6521 166.24 18.8436C165.891 19.0352 165.599 19.3017 165.366 19.6432C165.141 19.9763 164.97 20.3677 164.854 20.8175C164.737 21.2672 164.679 21.7503 164.679 22.2666ZM182.244 29.7499C181.194 29.7499 180.253 29.5833 179.42 29.2501C178.587 28.9087 177.88 28.4381 177.297 27.8385C176.722 27.2388 176.28 26.5434 175.972 25.7521C175.664 24.9526 175.51 24.1031 175.51 23.2036V22.7039C175.51 21.6795 175.656 20.7425 175.947 19.893C176.239 19.0435 176.655 18.3064 177.197 17.6818C177.746 17.0571 178.413 16.5782 179.195 16.2451C179.978 15.9036 180.861 15.7329 181.844 15.7329C182.802 15.7329 183.651 15.8911 184.392 16.2076C185.134 16.5241 185.754 16.9739 186.254 17.5569C186.762 18.1398 187.145 18.8394 187.403 19.6556C187.661 20.4635 187.791 21.363 187.791 22.3541V23.8532H177.047V21.4546H184.255V21.1798C184.255 20.6801 184.163 20.2345 183.98 19.843C183.805 19.4433 183.539 19.1268 183.181 18.8936C182.823 18.6604 182.364 18.5438 181.806 18.5438C181.332 18.5438 180.924 18.6479 180.582 18.8561C180.241 19.0643 179.962 19.3558 179.745 19.7306C179.537 20.1054 179.379 20.5468 179.27 21.0548C179.17 21.5546 179.12 22.1042 179.12 22.7039V23.2036C179.12 23.745 179.195 24.2447 179.345 24.7028C179.504 25.1608 179.724 25.5564 180.007 25.8896C180.299 26.2227 180.649 26.4809 181.057 26.6641C181.473 26.8474 181.944 26.939 182.469 26.939C183.118 26.939 183.722 26.814 184.28 26.5642C184.846 26.306 185.334 25.9187 185.742 25.4024L187.491 27.3013C187.208 27.7094 186.82 28.1008 186.329 28.4756C185.846 28.8504 185.263 29.1585 184.58 29.4001C183.897 29.6333 183.118 29.7499 182.244 29.7499ZM193.675 27.9759L197.26 15.9828H201.12L195.686 31.5363C195.569 31.8778 195.411 32.2443 195.211 32.6357C195.02 33.0271 194.757 33.3978 194.424 33.7476C194.099 34.1057 193.687 34.3972 193.187 34.6221C192.696 34.8469 192.092 34.9594 191.376 34.9594C191.035 34.9594 190.755 34.9385 190.539 34.8969C190.322 34.8553 190.064 34.797 189.764 34.722V32.086C189.856 32.086 189.952 32.086 190.052 32.086C190.152 32.0943 190.247 32.0985 190.339 32.0985C190.814 32.0985 191.201 32.0444 191.501 31.9361C191.801 31.8278 192.042 31.6613 192.225 31.4364C192.409 31.2198 192.554 30.9367 192.663 30.5869L193.675 27.9759ZM192.176 15.9828L195.111 25.7771L195.624 29.5874L193.175 29.8498L188.315 15.9828H192.176Z" fill="#E1E1E6"/>
<defs>
<linearGradient id="paint0_linear_42078_437" x1="11" y1="38" x2="29" y2="25.5" gradientUnits="userSpaceOnUse">
<stop stop-color="#00291D"/>
<stop offset="1" stop-color="#00B37E"/>
</linearGradient>
</defs>
</svg>
